<?xml version="1.0" encoding="UTF-8" standalone="no"?>
<svg
   id="Layer_1"
   viewBox="0 0 80349.573 80349.573"
   version="1.1"
   width="80349.57"
   height="80349.57"
   xmlns="http://www.w3.org/2000/svg"
   xmlns:svg="http://www.w3.org/2000/svg">
  <defs
     id="defs1">
    <style
       id="style1">.cls-1,.cls-2,.cls-3,.cls-4,.cls-5,.cls-6,.cls-7,.cls-8,.cls-9,.cls-10,.cls-11{isolation:isolate;}.cls-1,.cls-3,.cls-7,.cls-9,.cls-10,.cls-11{font-family:BakbakOne-Regular, 'Bakbak One';}.cls-1,.cls-6,.cls-12,.cls-8,.cls-9,.cls-10,.cls-11{fill:#006837;}.cls-1,.cls-7,.cls-11{font-size:24.1px;}.cls-2{font-size:16.06px;}.cls-2,.cls-4{fill:#333;font-family:CenturySchoolbook, 'Century Schoolbook';}.cls-3,.cls-7{fill:none;stroke:#006837;stroke-miterlimit:10;}.cls-3,.cls-8,.cls-9,.cls-10{font-size:36px;}.cls-3,.cls-9{letter-spacing:.07em;}.cls-4{font-size:24px;}.cls-6{font-size:21px;}.cls-6,.cls-8{font-family:TimesNewRomanPS-BoldMT, 'Times New Roman';font-weight:700;}.cls-7,.cls-11{letter-spacing:.07em;}.cls-12,.cls-13{stroke-width:0px;}.cls-13{fill:#fff;}</style>
  </defs>
  <g
     class="cls-5"
     id="g1"
     transform="translate(-6,-0.70361)">
    <text
       class="cls-4"
       transform="translate(62.99,65.99)"
       id="text1"><tspan
         x="0"
         y="0"
         id="tspan1">JOSEPH</tspan></text>
  </g>
  <g
     class="cls-5"
     id="g2"
     transform="translate(0,-0.27961)">
    <text
       class="cls-4"
       transform="translate(202.61,65.59)"
       id="text2"><tspan
         x="0"
         y="0"
         id="tspan2">N</tspan></text>
  </g>
  <g
     class="cls-5"
     id="g3"
     transform="translate(0,0.024)">
    <text
       class="cls-4"
       transform="translate(201.99,91.99)"
       id="text3"><tspan
         x="0"
         y="0"
         id="tspan3">N</tspan></text>
  </g>
  <g
     class="cls-5"
     id="g5">
    <text
       class="cls-8"
       transform="translate(50.98,127.99)"
       id="text4"><tspan
         x="0"
         y="0"
         id="tspan4">BACK</tspan></text>
    <text
       class="cls-8"
       transform="translate(41,157.99)"
       id="text5"><tspan
         x="0"
         y="0"
         id="tspan5">HOME</tspan></text>
  </g>
  <g
     class="cls-5"
     id="g6"
     transform="translate(-2)">
    <text
       class="cls-4"
       transform="translate(88.99,91.99)"
       id="text6"><tspan
         x="0"
         y="0"
         id="tspan6">REUN</tspan></text>
  </g>
  <g
     class="cls-5"
     id="g8"
     transform="translate(-0.2348118,-1.09161)">
    <text
       class="cls-9"
       id="text8"
       transform="translate(162.99,66.99)"><tspan
         x="0"
         y="0"
         id="tspan8">14</tspan></text>
    <text
       xml:space="preserve"
       style="font-size:36px;font-family:AkrutiTml1;-inkscape-font-specification:AkrutiTml1;fill:#006837;fill-opacity:1"
       x="157.40668"
       y="65.234009"
       id="text19"><tspan
         id="tspan19"
         x="157.40668"
         y="65.234009">'</tspan></text>
  </g>
  <g
     class="cls-5"
     id="g9"
     transform="translate(0,-1.14)">
    <text
       class="cls-3"
       transform="translate(162.99,94.99)"
       id="text9"><tspan
         x="0"
         y="0"
         id="tspan9">10</tspan></text>
  </g>
  <rect
     class="cls-12"
     x="162"
     y="101"
     width="60"
     height="59"
     id="rect9" />
  <path
     class="cls-13"
     d="m 210.54,156.93 c -0.2,-0.02 -0.32,-0.15 -0.45,-0.23 -5.99,-3.89 -11.98,-7.79 -17.97,-11.69 -0.3,-0.2 -0.52,-0.2 -0.83,0 -6.02,3.93 -12.06,7.85 -18.09,11.77 -0.1,0.06 -0.18,0.16 -0.34,0.15 -0.02,-0.21 0.06,-0.39 0.12,-0.58 1.87,-6.51 3.74,-13.02 5.63,-19.53 0.13,-0.44 0.05,-0.69 -0.3,-0.97 -4.18,-3.34 -8.34,-6.69 -12.51,-10.04 -0.92,-0.74 -1.84,-1.48 -2.75,-2.22 -0.1,-0.08 -0.27,-0.15 -0.22,-0.29 0.05,-0.16 0.22,-0.1 0.35,-0.1 6.19,0 12.39,0.01 18.58,0.02 0.51,0 1.02,0 1.54,0.02 0.33,0.01 0.5,-0.14 0.61,-0.43 1.02,-2.68 2.05,-5.36 3.08,-8.04 1.49,-3.88 2.99,-7.75 4.49,-11.63 0.02,-0.04 0.03,-0.09 0.05,-0.13 0.05,-0.1 0.05,-0.28 0.17,-0.29 0.16,0 0.16,0.19 0.2,0.3 l 5.16,13.17 c 0.86,2.2 1.72,4.39 2.57,6.59 0.12,0.3 0.28,0.44 0.6,0.42 0.38,-0.02 0.76,0 1.14,0 h 18.62 c 0.2,0 0.5,-0.12 0.58,0.1 0.06,0.18 -0.24,0.29 -0.39,0.41 -5.33,4.06 -10.67,8.13 -16.01,12.18 -0.32,0.24 -0.38,0.45 -0.26,0.83 2.19,6.57 4.37,13.15 6.55,19.73 0.05,0.15 0.14,0.3 0.1,0.48 z m 5.79,-32.38 c -0.22,-0.12 -0.43,-0.11 -0.64,-0.11 h -17.04 c -0.43,0 -0.73,0.14 -1.01,0.47 -1.8,2.13 -3.61,4.24 -5.43,6.36 -0.1,0.12 -0.2,0.32 -0.4,0.24 -0.2,-0.07 -0.14,-0.28 -0.14,-0.44 v -23.69 c 0,-0.21 0.09,-0.55 -0.16,-0.59 -0.22,-0.04 -0.25,0.31 -0.32,0.49 -2.05,5.39 -4.09,10.78 -6.14,16.16 -0.15,0.41 -0.1,0.73 0.19,1.08 1.86,2.15 3.7,4.32 5.55,6.49 0.14,0.16 0.41,0.34 0.27,0.57 -0.16,0.26 -0.44,0.06 -0.65,0 -4.34,-1.27 -8.68,-2.55 -13.03,-3.82 -3.22,-0.95 -6.44,-1.89 -9.67,-2.83 -0.22,-0.06 -0.52,-0.23 -0.65,0.02 -0.14,0.25 0.2,0.36 0.36,0.49 4.19,3.29 8.38,6.57 12.56,9.86 0.32,0.25 0.63,0.31 1.03,0.18 3.26,-1.08 6.51,-2.14 9.77,-3.21 0.17,-0.06 0.34,-0.11 0.51,-0.16 0.07,-0.02 0.15,-0.04 0.19,0.04 0.03,0.06 -0.02,0.11 -0.06,0.16 -0.14,0.18 -0.29,0.35 -0.43,0.53 -3.87,4.96 -7.74,9.92 -11.6,14.88 l -4.08,5.25 c -0.12,0.15 -0.24,0.3 -0.25,0.5 0,0.26 0.11,0.36 0.34,0.25 0.22,-0.11 0.43,-0.25 0.64,-0.38 5,-3.32 9.99,-6.65 15,-9.96 0.44,-0.29 0.62,-0.62 0.61,-1.14 -0.02,-2.99 0,-5.98 0,-8.97 v -0.5 c 0,-0.11 0.03,-0.22 0.15,-0.26 0.12,-0.04 0.2,0.03 0.27,0.12 0.15,0.19 0.3,0.37 0.44,0.56 4.61,6.09 9.22,12.17 13.82,18.26 0.41,0.54 0.83,1.08 1.24,1.61 0.06,0.07 0.12,0.18 0.23,0.14 0.12,-0.05 0.11,-0.17 0.08,-0.28 -0.06,-0.22 -0.12,-0.44 -0.19,-0.65 -1.9,-5.59 -3.81,-11.18 -5.71,-16.77 -0.13,-0.38 -0.34,-0.59 -0.73,-0.69 -1.55,-0.44 -3.09,-0.9 -4.63,-1.36 -1.35,-0.4 -2.69,-0.8 -4.04,-1.2 -0.15,-0.05 -0.37,-0.06 -0.36,-0.28 0,-0.21 0.23,-0.21 0.38,-0.26 0.03,0 0.07,-0.02 0.1,-0.03 4.16,-1.23 8.32,-2.45 12.47,-3.68 3.51,-1.04 7.01,-2.08 10.51,-3.12 0.21,-0.06 0.44,-0.1 0.6,-0.32 h 0.05 z"
     id="path9" />
</svg>
