<?xml version="1.0" encoding="UTF-8" standalone="no"?>
<!-- Created with Inkscape (http://www.inkscape.org/) -->

<svg
   width="470.13531"
   height="314.44299"
   viewBox="0 0 470.13531 314.44299"
   version="1.1"
   id="svg1"
   xmlns="http://www.w3.org/2000/svg"
   xmlns:svg="http://www.w3.org/2000/svg">
  <defs
     id="defs1" />
  <g
     id="layer1"
     transform="translate(-20.932348,-98.778511)">
    <g
       id="g1"
       transform="translate(-0.12206803,-50.960231)">
      <g
         class="cls-5"
         id="g2"
         transform="matrix(2.6083251,0,0,2.6083251,-103.50839,45.014465)"
         style="isolation:isolate">
        <path
           d="m 5.016,-16.2 h 0.432 c 1.368,0.024 1.824,0.096 2.016,0.336 0.144,0.216 0.144,0.264 0.144,1.488 v 7.728 c 0,2.112 -0.072,3.072 -0.312,3.816 -0.456,1.344 -1.44,2.064 -2.832,2.064 -1.008,0 -1.944,-0.408 -2.448,-1.056 C 1.752,-2.16 1.56,-2.64 1.56,-2.928 c 0,-0.216 0.12,-0.384 0.288,-0.384 H 1.92 c 0.408,0.096 0.6,0.12 0.888,0.12 0.864,0 1.512,-0.744 1.512,-1.728 0,-1.008 -0.744,-1.728 -1.8,-1.728 -1.392,0 -2.4,1.224 -2.4,2.928 0,1.152 0.528,2.328 1.392,3.048 0.816,0.696 1.92,1.032 3.36,1.032 2.136,0 3.672,-0.696 4.512,-2.04 0.624,-0.96 0.888,-2.4 0.888,-4.752 v -7.944 c 0,-1.224 0,-1.272 0.168,-1.488 0.168,-0.24 0.624,-0.312 1.992,-0.336 h 0.456 v -1.128 H 5.016 Z m 17.759994,-1.488 c -2.136,0 -3.96,0.672 -5.424,2.016 -1.848,1.704 -2.928,4.296 -2.928,7.032 0,2.688 1.104,5.304 2.928,6.984 1.44,1.32 3.264,2.016 5.328,2.016 4.704,0 8.256,-3.888 8.256,-9.024 0,-5.088 -3.552,-9.024 -8.16,-9.024 z m -0.024,1.128 c 1.608,0 2.952,0.744 3.816,2.064 0.888,1.416 1.2,2.88 1.2,5.832 0,2.928 -0.312,4.392 -1.2,5.832 -0.864,1.344 -2.184,2.064 -3.888,2.064 -1.704,0 -3.024,-0.696 -3.888,-2.064 -0.912,-1.44 -1.2,-2.904 -1.2,-5.88 0,-2.904 0.312,-4.344 1.2,-5.784 0.888,-1.392 2.16,-2.064 3.96,-2.064 z m 22.416017,-0.912 h -0.888 l -0.96,1.44 c -1.152,-1.08 -2.664,-1.656 -4.368,-1.656 -3.168,0 -5.256,1.992 -5.256,5.016 0,2.616 1.296,3.912 4.824,4.824 l 2.28,0.576 c 1.776,0.456 1.944,0.504 2.448,0.888 0.72,0.552 1.104,1.344 1.104,2.28 0,0.96 -0.36,1.752 -1.08,2.424 -0.792,0.672 -1.584,0.936 -2.904,0.936 -1.776,0 -3.048,-0.552 -4.176,-1.8 -1.008,-1.104 -1.512,-2.256 -1.872,-4.104 h -1.032 l 0.096,6.84 h 0.936 l 1.08,-1.632 c 1.608,1.32 2.928,1.8 5.04,1.8 3.528,0 5.784,-2.064 5.784,-5.28 0,-1.512 -0.48,-2.76 -1.44,-3.672 -0.648,-0.624 -1.584,-1.032 -3.504,-1.512 l -2.568,-0.648 c -2.136,-0.552 -3.144,-1.488 -3.144,-2.952 0,-1.68 1.368,-2.832 3.408,-2.832 1.68,0 3.048,0.72 4.008,2.088 0.696,0.984 1.152,1.992 1.44,3.216 h 1.032 z m 17.135979,0.144 h -14.424 v 1.128 h 0.432 c 1.368,0.024 1.824,0.096 2.016,0.336 0.144,0.216 0.144,0.264 0.144,1.488 v 11.424 c 0,1.224 0,1.272 -0.144,1.488 -0.192,0.24 -0.648,0.336 -2.016,0.336 h -0.432 V 0 h 14.736 l 0.48,-6.408 h -1.056 c -0.912,4.272 -1.896,5.184 -5.568,5.28 h -1.584 c -1.44,-0.048 -1.8,-0.288 -1.728,-1.152 V -8.4 h 0.48 c 2.472,-0.096 3.36,0.792 3.456,3.456 h 1.128 v -7.872 h -1.128 c -0.144,2.352 -1.08,3.288 -3.36,3.288 h -0.576 V -15 c -0.024,-1.008 0.216,-1.176 1.512,-1.2 h 1.248 c 3.936,-0.024 4.92,0.84 5.688,4.992 h 1.032 z m 8.160003,9.624 h 2.712 c 2.16,0 3.288,-0.168 4.272,-0.624 1.68,-0.816 2.64,-2.352 2.64,-4.248 0,-1.824 -0.84,-3.216 -2.424,-4.008 -0.936,-0.48 -2.424,-0.744 -4.08,-0.744 h -8.4 v 1.128 h 0.432 c 1.368,0.024 1.824,0.096 2.016,0.336 0.144,0.216 0.144,0.264 0.144,1.488 v 11.424 c 0,1.224 0,1.272 -0.144,1.488 -0.192,0.24 -0.648,0.336 -2.016,0.336 h -0.432 V 0 h 8.064 v -1.128 h -0.624 c -1.368,0 -1.824,-0.096 -2.016,-0.336 -0.144,-0.216 -0.144,-0.264 -0.144,-1.488 z m 0,-1.128 v -6.144 c 0,-1.104 0.12,-1.224 1.464,-1.224 h 1.536 c 2.496,0 3.672,1.176 3.672,3.72 0,2.472 -1.224,3.648 -3.768,3.648 z m 23.831991,0.504 v 5.376 c 0,1.224 0,1.272 -0.144,1.488 -0.192,0.24 -0.648,0.336 -2.016,0.336 h -0.432 V 0 h 7.872 v -1.128 h -0.432 c -1.368,0 -1.824,-0.096 -2.016,-0.336 -0.144,-0.216 -0.144,-0.24 -0.144,-1.488 v -11.424 c 0,-1.248 0,-1.272 0.144,-1.488 0.216,-0.264 0.648,-0.336 2.016,-0.336 h 0.432 v -1.128 h -7.776 v 1.128 h 0.336 c 1.368,0 1.8,0.072 2.016,0.336 0.144,0.216 0.144,0.264 0.144,1.488 v 4.752 h -8.04 v -4.752 c 0,-1.224 0,-1.272 0.168,-1.488 0.192,-0.264 0.624,-0.336 1.992,-0.336 h 0.456 v -1.128 h -7.896 v 1.128 h 0.432 c 1.368,0 1.8,0.072 2.016,0.336 0.144,0.216 0.144,0.264 0.144,1.488 v 11.424 c 0,1.2 0,1.272 -0.144,1.488 -0.192,0.24 -0.648,0.336 -2.016,0.336 h -0.432 V 0 h 7.896 v -1.128 h -0.456 c -1.368,-0.024 -1.8,-0.096 -1.992,-0.336 -0.168,-0.216 -0.168,-0.264 -0.168,-1.488 v -5.376 z"
           id="text1"
           class="cls-4"
           style="font-size:24px;font-family:CenturySchoolbook, 'Century Schoolbook';isolation:isolate;fill:#333333"
           transform="translate(62.99,65.99)"
           aria-label="JOSEPH" />
      </g>
      <g
         class="cls-5"
         id="g3"
         transform="matrix(2.6083251,0,0,2.6083251,-87.85844,46.120395)"
         style="isolation:isolate">
        <path
           d="M 5.4,-17.328 H 0.456 v 1.128 h 0.6 c 1.368,0.048 1.824,0.216 2.208,0.792 v 10.2 c 0,3.264 -0.456,3.96 -2.784,4.08 V 0 H 7.32 V -1.128 C 5.016,-1.248 4.56,-1.944 4.56,-5.208 v -8.904 L 15.264,0.336 h 1.008 V -12.12 c 0,-3.264 0.456,-3.96 2.784,-4.08 v -1.128 h -6.84 v 1.128 c 2.304,0.12 2.76,0.792 2.76,4.08 v 7.536 z"
           id="text2"
           class="cls-4"
           style="font-size:24px;font-family:CenturySchoolbook, 'Century Schoolbook';isolation:isolate;fill:#333333"
           transform="translate(202.61,65.59)"
           aria-label="N" />
      </g>
      <g
         class="cls-5"
         id="g4"
         transform="matrix(2.6083251,0,0,2.6083251,-87.85844,46.912308)"
         style="isolation:isolate">
        <path
           d="M 5.4,-17.328 H 0.456 v 1.128 h 0.6 c 1.368,0.048 1.824,0.216 2.208,0.792 v 10.2 c 0,3.264 -0.456,3.96 -2.784,4.08 V 0 H 7.32 V -1.128 C 5.016,-1.248 4.56,-1.944 4.56,-5.208 v -8.904 L 15.264,0.336 h 1.008 V -12.12 c 0,-3.264 0.456,-3.96 2.784,-4.08 v -1.128 h -6.84 v 1.128 c 2.304,0.12 2.76,0.792 2.76,4.08 v 7.536 z"
           id="text3"
           class="cls-4"
           style="font-size:24px;font-family:CenturySchoolbook, 'Century Schoolbook';isolation:isolate;fill:#333333"
           transform="translate(201.99,91.99)"
           aria-label="N" />
      </g>
      <g
         class="cls-5"
         id="g5"
         style="isolation:isolate"
         transform="matrix(2.6083251,0,0,2.6083251,-87.85844,46.849709)">
        <path
           d="m 16.013672,-12.638672 q 3.392578,0.791016 4.763672,1.916016 1.96875,1.5996091 1.96875,4.1484373 0,2.6894531 -2.16211,4.4472656 Q 17.929687,0 12.867188,0 H 0.75585937 v -0.65039062 q 1.65234373,0 2.23242193,-0.29882813 Q 3.5859375,-1.265625 3.8144531,-1.7578125 4.0605469,-2.25 4.0605469,-4.1835937 V -19.652344 q 0,-1.933593 -0.2460938,-2.425781 -0.2285156,-0.509766 -0.8261718,-0.808594 -0.5976563,-0.298828 -2.23242193,-0.298828 v -0.65039 H 12.181641 q 4.095703,0 5.800781,0.738281 1.705078,0.720703 2.689453,2.179687 0.984375,1.441407 0.984375,3.076172 0,1.722656 -1.248047,3.076172 -1.248047,1.335937 -4.394531,2.126953 z m -6.3984376,-0.474609 q 2.4960936,0 3.6738286,-0.5625 1.195312,-0.5625 1.828125,-1.582032 0.632812,-1.019531 0.632812,-2.601562 0,-1.582031 -0.632812,-2.583984 -0.615235,-1.019532 -1.775391,-1.546875 Q 12.181641,-22.517578 9.6152344,-22.5 Z m 0,1.371093 v 7.6464849 l -0.017578,0.8789062 q 0,0.9492188 0.4746096,1.4414063 0.492187,0.4746094 1.441406,0.4746094 1.40625,0 2.583984,-0.6152344 1.195313,-0.6328125 1.828125,-1.8105469 0.632813,-1.1953125 0.632813,-2.6542969 0,-1.6699219 -0.773438,-2.9882812 -0.773437,-1.3359374 -2.126953,-1.8632814 -1.353515,-0.527344 -4.0429686,-0.509766 z m 29.3730466,4.9570318 h -8.419922 l -1.001953,2.3203125 q -0.492187,1.1601562 -0.492187,1.9160156 0,1.0019531 0.808593,1.4765625 0.47461,0.28124998 2.337891,0.42187498 V 0 h -7.927734 v -0.65039062 q 1.283203,-0.19335938 2.109375,-1.05468748 0.826172,-0.8789063 2.039062,-3.6035156 l 8.525391,-19.0195313 h 0.333984 l 8.595703,19.546875 q 1.230469,2.7773437 2.021485,3.4980469 0.597656,0.54492185 1.6875,0.63281248 V 0 h -11.53125 v -0.65039062 h 0.474609 q 1.388672,0 1.951172,-0.38671878 0.386719,-0.28125 0.386719,-0.8085937 0,-0.3164063 -0.105469,-0.6503907 -0.03516,-0.1582031 -0.527344,-1.3183593 z m -0.597656,-1.3007813 -3.550781,-8.2089845 -3.65625,8.2089845 z M 74.039062,-24.380859 v 8.261718 h -0.685546 q -0.773438,-3.234375 -2.882813,-4.957031 -2.109375,-1.722656 -4.78125,-1.722656 -2.232422,0 -4.095703,1.283203 -1.863281,1.283203 -2.724609,3.357422 -1.107422,2.654297 -1.107422,5.90625 0,3.1992186 0.808593,5.8359374 0.808594,2.6191406 2.53125,3.9726562 1.722657,1.3359375 4.464844,1.3359375 2.25,0 4.113281,-0.984375 1.88086,-0.984375 3.955079,-3.3925781 v 2.0566406 q -2.003907,2.0917969 -4.183594,3.04101565 -2.16211,0.93164062 -5.0625,0.93164062 -3.814453,0 -6.785156,-1.52929687 -2.953125,-1.5292969 -4.570313,-4.3945312 -1.599609,-2.8652344 -1.599609,-6.0996098 0,-3.410156 1.77539,-6.46875 1.792969,-3.058593 4.816407,-4.746093 3.041015,-1.6875 6.451171,-1.6875 2.513672,0 5.308594,1.089843 1.617188,0.632813 2.056641,0.632813 0.5625,0 0.966797,-0.404297 0.421875,-0.421875 0.544922,-1.318359 z m 16.962891,9.667968 8.384766,10.494141 q 1.775391,2.2148437 3.058591,3.0058594 0.93164,0.56249998 1.96875,0.56249998 V 0 H 92.003906 v -0.65039062 q 1.177735,-0.10546875 1.511719,-0.36914058 0.351562,-0.2636719 0.351562,-0.6503907 0,-0.7382812 -1.617187,-2.7773437 l -5.466797,-6.8730474 -0.878906,0.738282 v 6.503906 q 0,1.8632812 0.210937,2.3203125 0.210938,0.4570313 0.808594,0.79101562 0.597656,0.31640626 1.916016,0.31640626 V 0 H 76.816406 v -0.65039062 h 0.791016 q 1.037109,0 1.669922,-0.36914058 0.457031,-0.2460938 0.703125,-0.84375 0.193359,-0.4218751 0.193359,-2.2148438 v -15.679687 q 0,-1.828125 -0.193359,-2.285157 -0.19336,-0.457031 -0.791016,-0.791015 -0.580078,-0.351563 -1.582031,-0.351563 h -0.791016 v -0.65039 h 11.865235 v 0.65039 q -1.212891,0 -1.845704,0.351563 -0.457031,0.246093 -0.720703,0.826172 -0.210937,0.439453 -0.210937,2.25 v 7.417968 l 8.841797,-7.154297 q 1.845703,-1.49414 1.845703,-2.390625 0,-0.667968 -0.75586,-1.054687 -0.386718,-0.193359 -1.916015,-0.246094 v -0.65039 h 9.298828 v 0.65039 q -1.24805,0.08789 -1.96875,0.457031 -0.70312,0.351563 -3.269531,2.425782 z"
           id="text4"
           class="cls-8"
           style="font-weight:700;font-size:36px;font-family:TimesNewRomanPS-BoldMT, 'Times New Roman';isolation:isolate;fill:#006837"
           transform="translate(50.98,127.99)"
           aria-label="BACK" />
        <path
           d="m 9.84375,-11.460938 v 7.382813 q 0,1.828125 0.193359,2.2851563 0.210938,0.4570312 0.791016,0.8085937 0.597656,0.33398438 1.599609,0.33398438 H 13.21875 V 0 H 0.75585937 V -0.65039062 H 1.546875 q 1.0371094,0 1.6699219,-0.36914058 0.4570312,-0.2460938 0.703125,-0.84375 0.1933593,-0.4218751 0.1933593,-2.2148438 v -15.679687 q 0,-1.828125 -0.1933593,-2.285157 Q 3.7265625,-22.5 3.1289063,-22.833984 2.5488281,-23.185547 1.546875,-23.185547 H 0.75585937 v -0.65039 H 13.21875 v 0.65039 h -0.791016 q -1.037109,0 -1.669921,0.369141 -0.457032,0.246094 -0.720704,0.84375 -0.193359,0.421875 -0.193359,2.214844 v 6.749999 h 8.419922 v -6.749999 q 0,-1.828125 -0.19336,-2.285157 -0.193359,-0.457031 -0.791015,-0.791015 -0.597656,-0.351563 -1.599609,-0.351563 H 14.90625 v -0.65039 h 12.445312 v 0.65039 h -0.773437 q -1.054688,0 -1.669922,0.369141 -0.457031,0.246094 -0.720703,0.84375 -0.193359,0.421875 -0.193359,2.214844 v 15.679687 q 0,1.828125 0.193359,2.2851563 0.193359,0.4570312 0.791016,0.8085937 0.597656,0.33398438 1.599609,0.33398438 h 0.773437 V 0 H 14.90625 v -0.65039062 h 0.773438 q 1.054687,0 1.669921,-0.36914058 0.457032,-0.2460938 0.720703,-0.84375 0.19336,-0.4218751 0.19336,-2.2148438 v -7.382813 z m 32.0625,-12.708984 q 5.695312,-0.210937 9.246094,3.322266 3.568359,3.533203 3.568359,8.841797 0,4.5351559 -2.654297,7.9804684 -3.515625,4.57031247 -9.93164,4.57031247 -6.433594,0 -9.949219,-4.35937497 -2.777344,-3.4453125 -2.777344,-8.1738279 0,-5.308594 3.603516,-8.841797 3.621093,-3.550781 8.894531,-3.339844 z m 0.210937,1.125 q -3.269531,0 -4.974609,3.339844 -1.388672,2.742187 -1.388672,7.875 0,6.0996093 2.144531,9.017578 1.494141,2.0390625 4.183594,2.0390625 1.810547,0 3.023438,-0.8789062 1.546875,-1.1250001 2.408203,-3.5859375 0.861328,-2.4785157 0.861328,-6.4511718 0,-4.728516 -0.878906,-7.066406 -0.878907,-2.355469 -2.25,-3.322266 -1.353516,-0.966797 -3.128907,-0.966797 z m 31.042969,14.9238282 6.46875,-15.7148432 h 9.703125 v 0.65039 h -0.773437 q -1.054688,0 -1.6875,0.369141 -0.439453,0.246094 -0.703125,0.826172 -0.19336,0.421875 -0.19336,2.197265 v 15.714844 q 0,1.828125 0.19336,2.2851563 0.193359,0.4570312 0.791015,0.8085937 0.597657,0.33398438 1.59961,0.33398438 h 0.773437 V 0 H 76.886719 v -0.65039062 h 0.773437 q 1.054688,0 1.6875,-0.36914058 0.439453,-0.2460938 0.703125,-0.84375 0.19336,-0.4218751 0.19336,-2.2148438 V -21.744141 L 71.103516,0 h -0.421875 l -9.28125,-21.585937 v 16.7871089 q 0,1.7578125 0.08789,2.1621093 0.228516,0.8789063 0.984375,1.4414063 0.773438,0.54492188 2.408203,0.54492188 V 0 h -8.15625 v -0.65039062 h 0.246094 q 0.791016,0.0175781 1.476563,-0.24609376 0.685546,-0.28125002 1.037109,-0.73828122 0.351562,-0.4570313 0.544922,-1.2832032 0.03516,-0.1933593 0.03516,-1.7929687 V -19.792969 q 0,-1.810547 -0.193359,-2.25 -0.19336,-0.457031 -0.791016,-0.791015 -0.597656,-0.351563 -1.599609,-0.351563 h -0.75586 v -0.65039 h 9.738282 z m 26.63086,-14.3437502 v 9.703125 h 0.474614 q 2.26757,0 3.2871,-1.423828 1.01954,-1.423828 1.30079,-4.201172 h 0.66796 V -5.90625 h -0.66796 q -0.21094,-2.0390625 -0.89649,-3.3398438 -0.66797,-1.3007812 -1.56445,-1.7402342 -0.89649,-0.457031 -2.601564,-0.457031 v 6.7148434 q 0,1.96875 0.158203,2.4082031 0.175781,0.4394531 0.632811,0.7207031 0.45703,0.28125 1.47656,0.28125 h 1.42383 q 3.33985,0 5.34375,-1.546875 2.02149,-1.546875 2.90039,-4.7109375 h 0.65039 L 111.30469,0 H 90.703125 v -0.65039062 h 0.791016 q 1.037109,0 1.669921,-0.36914058 0.457032,-0.2460938 0.703125,-0.84375 0.19336,-0.4218751 0.19336,-2.2148438 v -15.679687 q 0,-1.617188 -0.08789,-1.986329 -0.175781,-0.615234 -0.65039,-0.949218 -0.667969,-0.492188 -1.828125,-0.492188 h -0.791016 v -0.65039 H 110.6543 v 7.048828 h -0.66797 q -0.50977,-2.583985 -1.44141,-3.708985 -0.91406,-1.125 -2.60156,-1.652343 -0.98438,-0.316407 -3.69141,-0.316407 z"
           id="text5"
           class="cls-8"
           style="font-weight:700;font-size:36px;font-family:TimesNewRomanPS-BoldMT, 'Times New Roman';isolation:isolate;fill:#006837"
           transform="translate(41,157.99)"
           aria-label="HOME" />
      </g>
      <g
         class="cls-5"
         id="g6"
         transform="matrix(2.6083251,0,0,2.6083251,-93.07509,46.849709)"
         style="isolation:isolate">
        <path
           d="m 5.904,-8.4 h 1.392 c 2.424,0.096 3.384,1.08 3.648,3.72 l 0.12,1.224 c 0.288,2.712 1.176,3.816 3.072,3.816 1.968,0 2.904,-1.32 2.976,-4.2 h -1.008 c -0.096,1.656 -0.384,2.376 -1.032,2.376 -0.552,0 -0.792,-0.408 -1.2,-2.064 L 13.488,-5.04 c -0.528,-2.208 -1.464,-3.216 -3.336,-3.696 3.456,-0.48 5.112,-1.872 5.112,-4.296 0,-2.736 -2.304,-4.296 -6.336,-4.296 H 0.624 v 1.128 h 0.432 c 1.368,0.024 1.824,0.096 2.016,0.336 0.144,0.216 0.144,0.264 0.144,1.488 v 11.448 c 0,1.2 0,1.248 -0.144,1.488 C 2.88,-1.2 2.424,-1.128 1.056,-1.128 H 0.624 V 0 H 8.496 V -1.128 H 8.064 C 6.696,-1.128 6.24,-1.2 6.048,-1.44 5.904,-1.68 5.904,-1.728 5.904,-2.928 Z m 0,-1.128 v -5.28 c -0.048,-1.32 0.072,-1.416 1.656,-1.392 h 1.296 c 2.376,0 3.456,1.008 3.456,3.192 0,1.224 -0.312,2.16 -0.936,2.664 -0.6,0.504 -1.68,0.816 -2.832,0.816 z m 26.952008,-7.8 h -14.424 v 1.128 h 0.432 c 1.368,0.024 1.824,0.096 2.016,0.336 0.144,0.216 0.144,0.264 0.144,1.488 v 11.424 c 0,1.224 0,1.272 -0.144,1.488 -0.192,0.24 -0.648,0.336 -2.016,0.336 h -0.432 V 0 h 14.736 l 0.48,-6.408 h -1.056 c -0.912,4.272 -1.896,5.184 -5.568,5.28 h -1.584 c -1.44,-0.048 -1.8,-0.288 -1.728,-1.152 V -8.4 h 0.48 c 2.472,-0.096 3.36,0.792 3.456,3.456 h 1.128 v -7.872 h -1.128 c -0.144,2.352 -1.08,3.288 -3.36,3.288 h -0.576 V -15 c -0.024,-1.008 0.216,-1.176 1.512,-1.2 h 1.248 c 3.936,-0.024 4.92,0.84 5.688,4.992 h 1.032 z m 14.544003,1.128 c 2.304,0.12 2.76,0.792 2.76,4.08 v 5.304 c 0,1.92 -0.12,2.688 -0.576,3.528 -0.768,1.488 -2.328,2.352 -4.272,2.352 -1.656,0 -3.048,-0.624 -3.84,-1.704 -0.648,-0.888 -0.768,-1.464 -0.768,-3.696 v -8.04 c 0,-1.224 0,-1.272 0.144,-1.488 0.192,-0.24 0.648,-0.312 2.016,-0.336 h 0.456 v -1.128 h -7.848 v 1.128 h 0.408 c 1.344,0.024 1.8,0.096 1.992,0.336 0.144,0.216 0.144,0.264 0.144,1.488 v 7.896 1.656 c 0.072,1.272 0.264,2.04 0.72,2.712 1.104,1.584 3.216,2.472 5.928,2.472 2.712,0 4.584,-0.816 5.736,-2.52 0.768,-1.104 1.056,-2.376 1.056,-4.512 v -5.448 c -0.024,-3.264 0.456,-3.96 2.784,-4.08 v -1.128 h -6.84 z m 12.624012,-1.128 h -4.944 v 1.128 h 0.6 c 1.368,0.048 1.824,0.216 2.208,0.792 v 10.2 c 0,3.264 -0.456,3.96 -2.784,4.08 V 0 h 6.84 v -1.128 c -2.304,-0.12 -2.76,-0.816 -2.76,-4.08 v -8.904 l 10.704,14.448 h 1.008 V -12.12 c 0,-3.264 0.456,-3.96 2.784,-4.08 v -1.128 h -6.84 v 1.128 c 2.304,0.12 2.76,0.792 2.76,4.08 v 7.536 z"
           id="text6"
           class="cls-4"
           style="font-size:24px;font-family:CenturySchoolbook, 'Century Schoolbook';isolation:isolate;fill:#333333"
           transform="translate(88.99,91.99)"
           aria-label="REUN" />
      </g>
      <g
         class="cls-5"
         id="g8"
         transform="matrix(2.6083251,0,0,2.6083251,-88.470901,44.002435)"
         style="isolation:isolate">
        <path
           d="m 1.44,-13.644 v -6.12 l 4.212,-2.664 h 5.4 l 0.072,22.104 H 5.652 V -16.2 h -0.18 l -3.852,2.556 z m 15.44399,5.04 8.352,-13.788 h 8.244 v 14.184 h 3.78 v 4.248 h -3.708 v 3.708 h -5.4 l -0.108,-3.708 h -11.16 z m 11.556,0.396 v -10.944 l -6.084,10.944 z"
           id="text8"
           class="cls-9"
           style="font-size:36px;font-family:BakbakOne-Regular, 'Bakbak One';letter-spacing:0.07em;isolation:isolate;fill:#006837"
           transform="translate(162.99,66.99)"
           aria-label="14" />
        <path
           d="m 158.23468,45.470009 v -4.932 h 4.932 v 4.5 q 0,2.448 -1.224,3.96 -1.296,1.62 -3.708,1.62 v -2.664 q 1.404,0 1.944,-0.54 0.54,-0.54 0.54,-1.944 z"
           id="text19"
           style="font-size:36px;font-family:AkrutiTml1;-inkscape-font-specification:AkrutiTml1;fill:#006837"
           aria-label="'" />
      </g>
      <g
         class="cls-5"
         id="g9"
         transform="matrix(2.6083251,0,0,2.6083251,-87.85844,43.876218)"
         style="isolation:isolate">
        <path
           d="m 1.44,-13.644 v -6.12 l 4.212,-2.664 h 5.4 l 0.072,22.104 H 5.652 V -16.2 h -0.18 l -3.852,2.556 z m 35.02799,2.34 q 0,4.104 -0.936,6.588 -0.936,2.484 -3.024,3.6 -2.088,1.116 -5.58,1.116 -3.456,0 -5.544,-1.116 -2.088,-1.116 -3.024,-3.6 -0.936,-2.484 -0.936,-6.588 0,-4.14 0.936,-6.624 0.936,-2.484 3.024,-3.6 2.088,-1.116 5.544,-1.116 3.492,0 5.58,1.116 2.088,1.116 3.024,3.6 0.936,2.484 0.936,6.624 z m -9.54,6.516 q 2.448,0 3.204,-1.584 0.792,-1.62 0.792,-4.932 0,-3.348 -0.792,-4.932 -0.756,-1.584 -3.204,-1.584 -2.412,0 -3.204,1.584 -0.756,1.584 -0.756,4.932 0,3.312 0.756,4.932 0.792,1.584 3.204,1.584 z"
           id="text9"
           class="cls-3"
           style="font-size:36px;font-family:BakbakOne-Regular, 'Bakbak One';letter-spacing:0.07em;isolation:isolate;fill:none;stroke:#006837;stroke-miterlimit:10"
           transform="translate(162.99,94.99)"
           aria-label="10" />
      </g>
      <path
         id="rect9"
         class="cls-12"
         style="fill:#006837;stroke-width:0px"
         d="m 334.69022,310.29054 h 156.4995 v 153.89118 h -156.4995 z" />
      <path
         class="cls-13"
         d="m 461.29832,456.17416 c -0.52167,-0.0522 -0.83466,-0.39125 -1.17375,-0.59991 -15.62386,-10.14639 -31.24773,-20.31886 -46.8716,-30.49132 -0.7825,-0.52167 -1.35633,-0.52167 -2.16491,0 -15.70211,10.25071 -31.4564,20.47535 -47.1846,30.69998 -0.26083,0.1565 -0.4695,0.41733 -0.88683,0.39125 -0.0522,-0.54775 0.1565,-1.01725 0.313,-1.51283 4.87757,-16.98019 9.75514,-33.96039 14.68487,-50.94059 0.33908,-1.14766 0.13042,-1.79974 -0.7825,-2.53007 -10.9028,-8.71181 -21.75343,-17.4497 -32.63014,-26.18758 -2.39966,-1.93017 -4.79932,-3.86033 -7.1729,-5.79049 -0.26083,-0.20866 -0.70425,-0.39125 -0.57383,-0.75641 0.13042,-0.41733 0.57383,-0.26083 0.91291,-0.26083 16.14554,0 32.31715,0.0261 48.46268,0.0522 1.33025,0 2.6605,0 4.01682,0.0522 0.86075,0.0261 1.30417,-0.36517 1.59108,-1.12158 2.66049,-6.99031 5.34707,-13.98062 8.03364,-20.97093 3.88641,-10.1203 7.7989,-20.21452 11.71138,-30.33482 0.0522,-0.10434 0.0783,-0.23475 0.13042,-0.33909 0.13042,-0.26083 0.13042,-0.73033 0.44342,-0.75641 0.41733,0 0.41733,0.49558 0.52166,0.7825 L 426.1381,349.911 c 2.24316,5.73831 4.48632,11.45055 6.70339,17.18886 0.313,0.7825 0.73033,1.14766 1.565,1.0955 0.99116,-0.0522 1.98233,0 2.97349,0 h 48.56701 c 0.52167,0 1.30416,-0.313 1.51283,0.26083 0.1565,0.4695 -0.626,0.75641 -1.01725,1.06941 -13.90237,10.5898 -27.83083,21.20569 -41.75928,31.7694 -0.83467,0.626 -0.99116,1.17375 -0.67817,2.16491 5.71224,17.1367 11.39838,34.29948 17.08453,51.46226 0.13042,0.39124 0.36517,0.78249 0.26084,1.25199 z m 15.1022,-84.45756 c -0.57383,-0.313 -1.12158,-0.28692 -1.66933,-0.28692 h -44.44586 c -1.12158,0 -1.90407,0.36517 -2.6344,1.22591 -4.69499,5.55573 -9.41606,11.0593 -14.16321,16.58895 -0.26083,0.313 -0.52166,0.83466 -1.04333,0.626 -0.52166,-0.18258 -0.36516,-0.73033 -0.36516,-1.14767 v -61.79122 c 0,-0.54774 0.23474,-1.43457 -0.41734,-1.53891 -0.57383,-0.10433 -0.65208,0.80858 -0.83466,1.27808 -5.34707,14.05887 -10.66805,28.11775 -16.01512,42.15053 -0.39125,1.06942 -0.26083,1.90408 0.49559,2.817 4.85148,5.60789 9.6508,11.26796 14.4762,16.92803 0.36516,0.41733 1.06941,0.88683 0.70425,1.48674 -0.41733,0.67817 -1.14767,0.1565 -1.69541,0 -11.32013,-3.31257 -22.64027,-6.65123 -33.98648,-9.9638 -8.39881,-2.47791 -16.79761,-4.92974 -25.2225,-7.38156 -0.57383,-0.1565 -1.35633,-0.59992 -1.69541,0.0522 -0.36517,0.65208 0.52166,0.93899 0.93899,1.27807 10.92888,8.58139 21.85777,17.1367 32.76057,25.71809 0.83466,0.65208 1.64324,0.80858 2.68657,0.4695 8.50314,-2.81699 16.9802,-5.58182 25.48334,-8.37272 0.44341,-0.1565 0.88683,-0.28692 1.33024,-0.41734 0.18258,-0.0522 0.39125,-0.10433 0.49558,0.10434 0.0783,0.1565 -0.0522,0.28691 -0.1565,0.41733 -0.36516,0.4695 -0.75641,0.91291 -1.12158,1.38241 -10.09421,12.93729 -20.18843,25.87459 -30.25657,38.81188 l -10.64196,13.6937 c -0.313,0.39125 -0.626,0.7825 -0.65208,1.30417 0,0.67816 0.28691,0.93899 0.88683,0.65208 0.57383,-0.28692 1.12158,-0.65208 1.66932,-0.99117 13.04163,-8.65963 26.05717,-17.34536 39.12488,-25.97891 1.14766,-0.75642 1.61716,-1.61716 1.59108,-2.97349 -0.0522,-7.7989 0,-15.59779 0,-23.39668 v -1.30416 c 0,-0.28692 0.0782,-0.57383 0.39125,-0.67817 0.313,-0.10433 0.52166,0.0783 0.70425,0.313 0.39124,0.49558 0.78249,0.96508 1.14766,1.46066 12.02438,15.8847 24.04876,31.74332 36.04705,47.62802 1.06941,1.4085 2.16491,2.81699 3.23432,4.1994 0.1565,0.18259 0.313,0.4695 0.59992,0.36517 0.313,-0.13042 0.28691,-0.44342 0.20866,-0.73033 -0.15649,-0.57383 -0.31299,-1.14767 -0.49558,-1.69541 -4.95581,-14.58054 -9.93772,-29.16108 -14.89353,-43.74161 -0.33909,-0.99117 -0.88683,-1.53892 -1.90408,-1.79975 -4.0429,-1.14766 -8.05972,-2.34749 -12.07655,-3.54732 -3.52123,-1.04333 -7.01639,-2.08666 -10.53763,-3.12999 -0.39125,-0.13042 -0.96508,-0.1565 -0.939,-0.73033 0,-0.54775 0.59992,-0.54775 0.99117,-0.67817 0.0782,0 0.18258,-0.0522 0.26083,-0.0783 10.85063,-3.20824 21.70126,-6.39039 32.52581,-9.59863 9.15522,-2.71266 18.28436,-5.42532 27.4135,-8.13798 0.54775,-0.1565 1.14766,-0.26083 1.565,-0.83466 h 0.13041 z"
         id="path9"
         style="fill:#ffffff;stroke-width:0px" />
    </g>
  </g>
</svg>
