<?xml version="1.0" encoding="UTF-8" standalone="no"?>
<!-- Created with Inkscape (http://www.inkscape.org/) -->

<svg
   width="210mm"
   height="297mm"
   viewBox="0 0 210 297"
   version="1.1"
   id="svg1"
   xmlns="http://www.w3.org/2000/svg"
   xmlns:svg="http://www.w3.org/2000/svg">
  <defs
     id="defs1" />
  <g
     id="layer1">
    <g
       class="cls-5"
       id="g2"
       style="isolation:isolate"
       transform="matrix(1.1152487,0,0,1.1152487,-42.865077,36.365369)">
      <path
         d="m 0.1171875,-3.7148438 q 0,-1.2773437 0.66796875,-2.0976562 0.67968745,-0.8320312 1.73437505,-0.8320312 0.796875,0 1.3007812,0.4804687 0.5039062,0.4804688 0.5039062,1.2421875 0,0.7382813 -0.4335937,1.2421875 Q 3.4570313,-3.1875 2.8125,-3.1875 q -0.3867187,0 -0.890625,-0.1289063 H 1.851563 q -0.2929688,0 -0.2929688,0.3867188 0,0.5273437 0.4570313,1.1015625 0.8203125,1.0546875 2.4492187,1.0546875 2.1328125,0 2.8359375,-2.0859375 0.3046875,-0.9023438 0.3046875,-3.5859375 0,-0.09375 0,-0.1992187 v -7.7343748 -0.691407 q 0,-0.773437 -0.3515625,-0.949218 -0.3398437,-0.175781 -1.78125,-0.175781 H 5.015625 v -1.136719 h 7.875 v 1.136719 h -0.457031 q -1.464844,0 -1.816406,0.175781 -0.339844,0.175781 -0.339844,0.949218 v 0.691407 7.9453123 q 0,3.3867187 -0.8906252,4.7578125 -1.2773438,2.03906245 -4.4882813,2.03906245 -2.203125,0 -3.3867188,-1.03125 Q 0.1171875,-1.8164062 0.1171875,-3.7148438 Z m 14.2968755,-4.921875 q 0,-2.0390622 0.761718,-3.9023442 0.773438,-1.863281 2.167969,-3.128906 2.191406,-2.015625 5.425781,-2.015625 3.457031,0 5.800781,2.601563 2.355469,2.601562 2.355469,6.4218747 0,3.8671876 -2.367187,6.4453125 -2.355469,2.57812505 -5.882813,2.57812505 -3.503906,0 -5.882812,-2.57812505 -2.378906,-2.5898437 -2.378906,-6.421875 z m 3.164062,-0.070312 q 0,2.2265626 0.269531,3.5039063 0.269531,1.265625 0.9375,2.3671875 1.324219,2.0625 3.890625,2.0625 2.566406,0 3.878906,-2.0625 0.667969,-1.078125 0.9375,-2.3554687 0.269532,-1.2890625 0.269532,-3.4687501 0,-2.1914062 -0.269532,-3.4804682 -0.257812,-1.300781 -0.9375,-2.355469 -1.335937,-2.0625 -3.808593,-2.0625 -2.636719,0 -3.960938,2.0625 -0.667969,1.078125 -0.9375,2.355469 -0.269531,1.265625 -0.269531,3.4335932 z m 15.644531,2.0625001 h 1.042969 q 0.503906,2.5664062 1.863281,4.1015624 1.628906,1.80468755 4.183594,1.80468755 1.804687,0 2.894531,-0.96093745 1.089844,-0.9609376 1.089844,-2.4140625 0,-1.4296875 -1.113281,-2.2734375 Q 42.820312,-6.679687 42.457031,-6.7968745 42.105469,-6.914062 40.734375,-7.2773432 L 38.460937,-7.851562 q -2.636718,-0.6679688 -3.738281,-1.7578125 -1.089844,-1.0898445 -1.089844,-3.0585945 0,-2.261719 1.453125,-3.632812 1.453125,-1.382812 3.808594,-1.382812 2.636719,0 4.371094,1.652343 l 0.949219,-1.441406 h 0.890625 l 0.292968,6.246093 h -1.03125 q -0.480468,-1.851562 -1.441406,-3.222656 -1.464844,-2.085937 -4.007812,-2.085937 -1.535157,0 -2.472657,0.785156 -0.9375,0.773437 -0.9375,2.050781 0,2.132813 3.140625,2.941406 l 2.566407,0.65625 q 2.613281,0.6445322 3.503906,1.5117197 1.441406,1.3945313 1.441406,3.6679688 0,2.4257812 -1.570312,3.8554688 -1.570313,1.42968745 -4.207032,1.42968745 -1.558593,0 -2.707031,-0.41015625 -1.136719,-0.41015625 -2.332031,-1.3945312 L 34.265625,0.1875 h -0.9375 z M 47.8125,0 v -1.125 h 0.433594 q 1.464843,0 1.816406,-0.1757812 0.351562,-0.1875 0.351562,-0.9609376 v -0.6914062 -11.425781 -0.691407 q 0,-0.773437 -0.351562,-0.949218 -0.351563,-0.175781 -1.816406,-0.175781 H 47.8125 v -1.136719 h 14.425781 l 0.339844,6.152343 h -1.03125 q -0.527344,-3.1875 -1.734375,-4.136718 -0.597656,-0.503907 -1.476563,-0.691406 -0.867187,-0.1875 -2.484375,-0.1875 h -1.242187 q -0.984375,0 -1.253906,0.210937 Q 53.097656,-15.773438 53.097656,-15 v 5.4726562 h 0.574219 q 1.699219,0 2.484375,-0.7617192 0.785156,-0.773437 0.878906,-2.53125 h 1.125 v 7.8750005 h -1.125 q -0.07031,-1.96875 -0.914062,-2.8125 -0.363282,-0.3867188 -0.902344,-0.515625 -0.539063,-0.1289063 -1.640625,-0.1289063 h -0.480469 v 6.1171875 q 0,0.6210938 0.1875,0.7968751 Q 53.648437,-1.125 54.820312,-1.125 h 1.59375 q 3.023438,0 4.125,-1.4179688 0.9375,-1.125 1.441407,-3.8671874 h 1.054687 L 62.554687,0 Z m 17.296875,0 v -1.125 h 0.433594 q 1.464843,0 1.816406,-0.1757812 0.351562,-0.1875 0.351562,-0.9609376 v -0.6914062 -11.425781 -0.691407 q 0,-0.773437 -0.351562,-0.949218 -0.351563,-0.175781 -1.816406,-0.175781 h -0.433594 v -1.136719 h 8.402344 q 2.636718,0 4.078125,0.75 2.425781,1.21875 2.425781,4.007812 0,1.417969 -0.703125,2.53125 -0.691406,1.1132815 -1.957031,1.7109377 -1.324219,0.6210938 -4.253907,0.6328126 h -2.707031 v 4.7460937 0.6914062 q 0,0.7734376 0.339844,0.9609376 Q 71.085937,-1.125 72.550781,-1.125 h 0.621094 V 0 Z m 5.285156,-8.8359375 h 2.90625 q 3.761719,0 3.761719,-3.6210935 0,-1.921875 -0.902344,-2.824219 -0.890625,-0.914062 -2.765625,-0.914062 h -1.535156 q -0.984375,0 -1.230469,0.199218 -0.234375,0.199219 -0.234375,1.019531 z M 81.140625,0 v -1.125 h 0.433594 q 1.464843,0 1.816406,-0.1757812 0.351562,-0.1875 0.351562,-0.9609376 v -0.6914062 -11.425781 -0.691407 q 0,-0.773437 -0.351562,-0.949218 -0.351563,-0.175781 -1.816406,-0.175781 h -0.433594 v -1.136719 h 7.898437 v 1.136719 h -0.457031 q -1.464844,0 -1.816406,0.175781 -0.339844,0.175781 -0.339844,0.949218 v 0.691407 4.7578122 h 8.039063 v -4.7578122 -0.691407 q 0,-0.773437 -0.351563,-0.949218 -0.339844,-0.175781 -1.804687,-0.175781 H 91.96875 v -1.136719 H 99.75 v 1.136719 h -0.433594 q -1.464844,0 -1.816406,0.175781 -0.351563,0.175781 -0.351563,0.949218 v 0.691407 11.425781 0.6914062 q 0,0.7734376 0.351563,0.9609376 Q 97.851562,-1.125 99.316406,-1.125 H 99.75 V 0 h -7.875 v -1.125 h 0.433594 q 1.464843,0 1.804687,-0.1757812 0.351563,-0.1875 0.351563,-0.9609376 V -2.953125 -8.3320313 h -8.039063 v 5.3789063 0.6914062 q 0,0.7734376 0.339844,0.9609376 Q 87.117187,-1.125 88.582031,-1.125 h 0.457031 V 0 Z"
         id="text1"
         style="font-size:24px;font-family:'Century Schoolbook L';-inkscape-font-specification:'Century Schoolbook L';isolation:isolate;fill:#333333"
         class="cls-4"
         transform="translate(62.99,65.99)"
         aria-label="JOSEPH" />
    </g>
    <g
       class="cls-5"
       id="g3"
       style="isolation:isolate"
       transform="matrix(1.1152487,0,0,1.1152487,-42.865077,36.365369)">
      <path
         style="font-size:24px;font-family:'Century Schoolbook L';-inkscape-font-specification:'Century Schoolbook L';isolation:isolate;fill:#333333"
         d="m 0.45703125,-16.195312 v -1.136719 H 5.4023437 l 9.5742193,12.7499998 v -7.5351568 q 0,-2.472656 -0.527344,-3.234375 -0.527344,-0.773437 -2.238281,-0.843749 v -1.136719 h 6.843749 v 1.136719 q -1.722656,0.07031 -2.25,0.843749 -0.527343,0.761719 -0.527343,3.234375 V 0.33984375 H 15.269531 L 4.5585937,-14.109375 v 8.90625 q 0,2.4726562 0.5273438,3.2460938 Q 5.6132812,-1.1953125 7.3242187,-1.125 V 0 H 0.48046875 V -1.125 Q 2.203125,-1.1953125 2.7304688,-1.9570312 3.2695313,-2.7304688 3.2695313,-5.203125 V -15.410156 Q 2.953125,-15.867188 2.4609375,-16.03125 1.96875,-16.195312 1.0546875,-16.195312 Z"
         id="text2"
         class="cls-4"
         transform="translate(202.61,65.59)"
         aria-label="N" />
    </g>
    <g
       class="cls-5"
       id="g4"
       style="isolation:isolate"
       transform="matrix(1.1152487,0,0,1.1152487,-42.865077,36.365369)">
      <path
         style="font-size:24px;font-family:'Century Schoolbook L';-inkscape-font-specification:'Century Schoolbook L';isolation:isolate;fill:#333333"
         d="m 0.45703125,-16.195312 v -1.136719 H 5.4023437 l 9.5742193,12.7499998 v -7.5351568 q 0,-2.472656 -0.527344,-3.234375 -0.527344,-0.773437 -2.238281,-0.843749 v -1.136719 h 6.843749 v 1.136719 q -1.722656,0.07031 -2.25,0.843749 -0.527343,0.761719 -0.527343,3.234375 V 0.33984375 H 15.269531 L 4.5585937,-14.109375 v 8.90625 q 0,2.4726562 0.5273438,3.2460938 Q 5.6132812,-1.1953125 7.3242187,-1.125 V 0 H 0.48046875 V -1.125 Q 2.203125,-1.1953125 2.7304688,-1.9570312 3.2695313,-2.7304688 3.2695313,-5.203125 V -15.410156 Q 2.953125,-15.867188 2.4609375,-16.03125 1.96875,-16.195312 1.0546875,-16.195312 Z"
         id="text3"
         class="cls-4"
         transform="translate(201.99,91.99)"
         aria-label="N" />
    </g>
    <g
       class="cls-5"
       id="g5"
       style="isolation:isolate"
       transform="matrix(1.1152487,0,0,1.1152487,-42.865077,36.365369)">
      <path
         style="font-weight:700;font-size:36px;font-family:'Times New Roman';-inkscape-font-specification:'Times New Roman, ';isolation:isolate;fill:#006837"
         d="m 16.013672,-12.638672 q 3.392578,0.791016 4.763672,1.916016 1.96875,1.5996091 1.96875,4.1484373 0,2.6894531 -2.16211,4.4472656 Q 17.929687,0 12.867188,0 H 0.75585937 v -0.65039062 q 1.65234373,0 2.23242193,-0.29882813 Q 3.5859375,-1.265625 3.8144531,-1.7578125 4.0605469,-2.25 4.0605469,-4.1835937 V -19.652344 q 0,-1.933593 -0.2460938,-2.425781 -0.2285156,-0.509766 -0.8261718,-0.808594 -0.5976563,-0.298828 -2.23242193,-0.298828 v -0.65039 H 12.181641 q 4.095703,0 5.800781,0.738281 1.705078,0.720703 2.689453,2.179687 0.984375,1.441407 0.984375,3.076172 0,1.722656 -1.248047,3.076172 -1.248047,1.335937 -4.394531,2.126953 z m -6.3984376,-0.474609 q 2.4960936,0 3.6738286,-0.5625 1.195312,-0.5625 1.828125,-1.582032 0.632812,-1.019531 0.632812,-2.601562 0,-1.582031 -0.632812,-2.583984 -0.615235,-1.019532 -1.775391,-1.546875 Q 12.181641,-22.517578 9.6152344,-22.5 Z m 0,1.371093 v 7.6464849 l -0.017578,0.8789062 q 0,0.9492188 0.4746096,1.4414063 0.492187,0.4746094 1.441406,0.4746094 1.40625,0 2.583984,-0.6152344 1.195313,-0.6328125 1.828125,-1.8105469 0.632813,-1.1953125 0.632813,-2.6542969 0,-1.6699219 -0.773438,-2.9882812 -0.773437,-1.3359374 -2.126953,-1.8632814 -1.353515,-0.527344 -4.0429686,-0.509766 z m 29.3730466,4.9570318 h -8.419922 l -1.001953,2.3203125 q -0.492187,1.1601562 -0.492187,1.9160156 0,1.0019531 0.808593,1.4765625 0.47461,0.28124998 2.337891,0.42187498 V 0 h -7.927734 v -0.65039062 q 1.283203,-0.19335938 2.109375,-1.05468748 0.826172,-0.8789063 2.039062,-3.6035156 l 8.525391,-19.0195313 h 0.333984 l 8.595703,19.546875 q 1.230469,2.7773437 2.021485,3.4980469 0.597656,0.54492185 1.6875,0.63281248 V 0 h -11.53125 v -0.65039062 h 0.474609 q 1.388672,0 1.951172,-0.38671878 0.386719,-0.28125 0.386719,-0.8085937 0,-0.3164063 -0.105469,-0.6503907 -0.03516,-0.1582031 -0.527344,-1.3183593 z m -0.597656,-1.3007813 -3.550781,-8.2089845 -3.65625,8.2089845 z M 74.039062,-24.380859 v 8.261718 h -0.685546 q -0.773438,-3.234375 -2.882813,-4.957031 -2.109375,-1.722656 -4.78125,-1.722656 -2.232422,0 -4.095703,1.283203 -1.863281,1.283203 -2.724609,3.357422 -1.107422,2.654297 -1.107422,5.90625 0,3.1992186 0.808593,5.8359374 0.808594,2.6191406 2.53125,3.9726562 1.722657,1.3359375 4.464844,1.3359375 2.25,0 4.113281,-0.984375 1.88086,-0.984375 3.955079,-3.3925781 v 2.0566406 q -2.003907,2.0917969 -4.183594,3.04101565 -2.16211,0.93164062 -5.0625,0.93164062 -3.814453,0 -6.785156,-1.52929687 -2.953125,-1.5292969 -4.570313,-4.3945312 -1.599609,-2.8652344 -1.599609,-6.0996098 0,-3.410156 1.77539,-6.46875 1.792969,-3.058593 4.816407,-4.746093 3.041015,-1.6875 6.451171,-1.6875 2.513672,0 5.308594,1.089843 1.617188,0.632813 2.056641,0.632813 0.5625,0 0.966797,-0.404297 0.421875,-0.421875 0.544922,-1.318359 z m 16.962891,9.667968 8.384766,10.494141 q 1.775391,2.2148437 3.058591,3.0058594 0.93164,0.56249998 1.96875,0.56249998 V 0 H 92.003906 v -0.65039062 q 1.177735,-0.10546875 1.511719,-0.36914058 0.351562,-0.2636719 0.351562,-0.6503907 0,-0.7382812 -1.617187,-2.7773437 l -5.466797,-6.8730474 -0.878906,0.738282 v 6.503906 q 0,1.8632812 0.210937,2.3203125 0.210938,0.4570313 0.808594,0.79101562 0.597656,0.31640626 1.916016,0.31640626 V 0 H 76.816406 v -0.65039062 h 0.791016 q 1.037109,0 1.669922,-0.36914058 0.457031,-0.2460938 0.703125,-0.84375 0.193359,-0.4218751 0.193359,-2.2148438 v -15.679687 q 0,-1.828125 -0.193359,-2.285157 -0.19336,-0.457031 -0.791016,-0.791015 -0.580078,-0.351563 -1.582031,-0.351563 h -0.791016 v -0.65039 h 11.865235 v 0.65039 q -1.212891,0 -1.845704,0.351563 -0.457031,0.246093 -0.720703,0.826172 -0.210937,0.439453 -0.210937,2.25 v 7.417968 l 8.841797,-7.154297 q 1.845703,-1.49414 1.845703,-2.390625 0,-0.667968 -0.75586,-1.054687 -0.386718,-0.193359 -1.916015,-0.246094 v -0.65039 h 9.298828 v 0.65039 q -1.24805,0.08789 -1.96875,0.457031 -0.70312,0.351563 -3.269531,2.425782 z"
         id="text4"
         class="cls-8"
         transform="translate(50.98,127.99)"
         aria-label="BACK" />
      <path
         style="font-weight:700;font-size:36px;font-family:'Times New Roman';-inkscape-font-specification:'Times New Roman, ';isolation:isolate;fill:#006837"
         d="m 9.84375,-11.460938 v 7.382813 q 0,1.828125 0.193359,2.2851563 0.210938,0.4570312 0.791016,0.8085937 0.597656,0.33398438 1.599609,0.33398438 H 13.21875 V 0 H 0.75585937 V -0.65039062 H 1.546875 q 1.0371094,0 1.6699219,-0.36914058 0.4570312,-0.2460938 0.703125,-0.84375 0.1933593,-0.4218751 0.1933593,-2.2148438 v -15.679687 q 0,-1.828125 -0.1933593,-2.285157 Q 3.7265625,-22.5 3.1289063,-22.833984 2.5488281,-23.185547 1.546875,-23.185547 H 0.75585937 v -0.65039 H 13.21875 v 0.65039 h -0.791016 q -1.037109,0 -1.669921,0.369141 -0.457032,0.246094 -0.720704,0.84375 -0.193359,0.421875 -0.193359,2.214844 v 6.749999 h 8.419922 v -6.749999 q 0,-1.828125 -0.19336,-2.285157 -0.193359,-0.457031 -0.791015,-0.791015 -0.597656,-0.351563 -1.599609,-0.351563 H 14.90625 v -0.65039 h 12.445312 v 0.65039 h -0.773437 q -1.054688,0 -1.669922,0.369141 -0.457031,0.246094 -0.720703,0.84375 -0.193359,0.421875 -0.193359,2.214844 v 15.679687 q 0,1.828125 0.193359,2.2851563 0.193359,0.4570312 0.791016,0.8085937 0.597656,0.33398438 1.599609,0.33398438 h 0.773437 V 0 H 14.90625 v -0.65039062 h 0.773438 q 1.054687,0 1.669921,-0.36914058 0.457032,-0.2460938 0.720703,-0.84375 0.19336,-0.4218751 0.19336,-2.2148438 v -7.382813 z m 32.0625,-12.708984 q 5.695312,-0.210937 9.246094,3.322266 3.568359,3.533203 3.568359,8.841797 0,4.5351559 -2.654297,7.9804684 -3.515625,4.57031247 -9.93164,4.57031247 -6.433594,0 -9.949219,-4.35937497 -2.777344,-3.4453125 -2.777344,-8.1738279 0,-5.308594 3.603516,-8.841797 3.621093,-3.550781 8.894531,-3.339844 z m 0.210937,1.125 q -3.269531,0 -4.974609,3.339844 -1.388672,2.742187 -1.388672,7.875 0,6.0996093 2.144531,9.017578 1.494141,2.0390625 4.183594,2.0390625 1.810547,0 3.023438,-0.8789062 1.546875,-1.1250001 2.408203,-3.5859375 0.861328,-2.4785157 0.861328,-6.4511718 0,-4.728516 -0.878906,-7.066406 -0.878907,-2.355469 -2.25,-3.322266 -1.353516,-0.966797 -3.128907,-0.966797 z m 31.042969,14.9238282 6.46875,-15.7148432 h 9.703125 v 0.65039 h -0.773437 q -1.054688,0 -1.6875,0.369141 -0.439453,0.246094 -0.703125,0.826172 -0.19336,0.421875 -0.19336,2.197265 v 15.714844 q 0,1.828125 0.19336,2.2851563 0.193359,0.4570312 0.791015,0.8085937 0.597657,0.33398438 1.59961,0.33398438 h 0.773437 V 0 H 76.886719 v -0.65039062 h 0.773437 q 1.054688,0 1.6875,-0.36914058 0.439453,-0.2460938 0.703125,-0.84375 0.19336,-0.4218751 0.19336,-2.2148438 V -21.744141 L 71.103516,0 h -0.421875 l -9.28125,-21.585937 v 16.7871089 q 0,1.7578125 0.08789,2.1621093 0.228516,0.8789063 0.984375,1.4414063 0.773438,0.54492188 2.408203,0.54492188 V 0 h -8.15625 v -0.65039062 h 0.246094 q 0.791016,0.0175781 1.476563,-0.24609376 0.685546,-0.28125002 1.037109,-0.73828122 0.351562,-0.4570313 0.544922,-1.2832032 0.03516,-0.1933593 0.03516,-1.7929687 V -19.792969 q 0,-1.810547 -0.193359,-2.25 -0.19336,-0.457031 -0.791016,-0.791015 -0.597656,-0.351563 -1.599609,-0.351563 h -0.75586 v -0.65039 h 9.738282 z m 26.63086,-14.3437502 v 9.703125 h 0.474614 q 2.26757,0 3.2871,-1.423828 1.01954,-1.423828 1.30079,-4.201172 h 0.66796 V -5.90625 h -0.66796 q -0.21094,-2.0390625 -0.89649,-3.3398438 -0.66797,-1.3007812 -1.56445,-1.7402342 -0.89649,-0.457031 -2.601564,-0.457031 v 6.7148434 q 0,1.96875 0.158203,2.4082031 0.175781,0.4394531 0.632811,0.7207031 0.45703,0.28125 1.47656,0.28125 h 1.42383 q 3.33985,0 5.34375,-1.546875 2.02149,-1.546875 2.90039,-4.7109375 h 0.65039 L 111.30469,0 H 90.703125 v -0.65039062 h 0.791016 q 1.037109,0 1.669921,-0.36914058 0.457032,-0.2460938 0.703125,-0.84375 0.19336,-0.4218751 0.19336,-2.2148438 v -15.679687 q 0,-1.617188 -0.08789,-1.986329 -0.175781,-0.615234 -0.65039,-0.949218 -0.667969,-0.492188 -1.828125,-0.492188 h -0.791016 v -0.65039 H 110.6543 v 7.048828 h -0.66797 q -0.50977,-2.583985 -1.44141,-3.708985 -0.91406,-1.125 -2.60156,-1.652343 -0.98438,-0.316407 -3.69141,-0.316407 z"
         id="text5"
         class="cls-8"
         transform="translate(41,157.99)"
         aria-label="HOME" />
    </g>
    <g
       class="cls-5"
       id="g6"
       style="isolation:isolate"
       transform="matrix(1.1152487,0,0,1.1152487,-42.865077,36.365369)">
      <path
         style="font-size:24px;font-family:'Century Schoolbook L';-inkscape-font-specification:'Century Schoolbook L';isolation:isolate;fill:#333333"
         d="M 0.62109375,0 V -1.125 H 1.0546875 q 1.4648438,0 1.8046875,-0.1757812 0.3515625,-0.1875 0.3515625,-0.9609376 v -0.6679687 -11.4492185 -0.691407 q 0,-0.773437 -0.3515625,-0.949218 -0.3398437,-0.175781 -1.8046875,-0.175781 H 0.62109375 v -1.136719 H 8.9296875 q 3.0234375,0 4.6757815,1.136719 1.664062,1.124999 1.664062,3.164062 0,3.5742187 -5.121093,4.3007812 1.417968,0.3632813 2.179687,1.2070313 0.773438,0.8320313 1.160156,2.484375 L 13.875,-3.5273438 q 0.316406,1.2421875 0.550781,1.6523438 0.234375,0.4101563 0.644532,0.4101563 0.480468,0 0.714843,-0.5625001 0.246094,-0.5625 0.316406,-1.8164062 h 1.007813 q -0.04687,2.15625 -0.773438,3.1875 -0.714843,1.01953125 -2.203124,1.01953125 -1.417969,0 -2.132813,-0.890625 -0.714844,-0.89062495 -0.9375,-2.92968755 l -0.117187,-1.2187499 q -0.234375,-2.203125 -1.2304692,-3 Q 8.8242188,-8.390625 7.3007812,-8.4023438 H 5.90625 v 5.4726563 0.6679687 q 0,0.7734376 0.3398437,0.9609376 Q 6.5976562,-1.125 8.0625,-1.125 H 8.4960938 V 0 Z M 5.90625,-9.5273438 h 2.6367188 q 1.8750002,0 2.8359372,-0.8203122 0.9375,-0.738282 0.9375,-2.660157 0,-1.628906 -0.84375,-2.402343 -0.84375,-0.785156 -2.613281,-0.785156 H 7.5585937 q -1.171875,0 -1.3945312,0.164062 -0.1875,0.140625 -0.2226563,0.328125 Q 5.90625,-15.527344 5.90625,-14.8125 Z M 18.011719,0 v -1.125 h 0.433593 q 1.464844,0 1.816407,-0.1757812 0.351562,-0.1875 0.351562,-0.9609376 v -0.6914062 -11.425781 -0.691407 q 0,-0.773437 -0.351562,-0.949218 -0.351563,-0.175781 -1.816407,-0.175781 h -0.433593 v -1.136719 H 32.4375 l 0.339844,6.152343 h -1.03125 q -0.527344,-3.1875 -1.734375,-4.136718 -0.597657,-0.503907 -1.476563,-0.691406 -0.867187,-0.1875 -2.484375,-0.1875 h -1.242187 q -0.984375,0 -1.253907,0.210937 Q 23.296875,-15.773438 23.296875,-15 v 5.4726562 h 0.574219 q 1.699218,0 2.484375,-0.7617192 0.785156,-0.773437 0.878906,-2.53125 h 1.125 v 7.8750005 h -1.125 q -0.07031,-1.96875 -0.914063,-2.8125 -0.363281,-0.3867188 -0.902343,-0.515625 -0.539063,-0.1289063 -1.640625,-0.1289063 h -0.480469 v 6.1171875 q 0,0.6210938 0.1875,0.7968751 Q 23.847656,-1.125 25.019531,-1.125 h 1.59375 q 3.023438,0 4.125,-1.4179688 0.9375,-1.125 1.441406,-3.8671874 h 1.054688 L 32.753906,0 Z m 17.039062,-16.195312 v -1.136719 h 7.851563 v 1.136719 h -0.457032 q -1.464843,0 -1.816406,0.175781 -0.351562,0.175781 -0.351562,0.949218 v 0.691407 8.0390623 q 0,1.6757812 0.140625,2.3554687 0.152343,0.6679687 0.632812,1.3476562 1.242188,1.6992188 3.832031,1.6992188 1.464844,0 2.578125,-0.609375 1.125,-0.609375 1.699219,-1.7460938 0.339844,-0.6210937 0.457031,-1.3476562 0.117188,-0.7382812 0.117188,-2.1796875 v -5.2968755 q 0,-2.472656 -0.527344,-3.234375 -0.527344,-0.773437 -2.226562,-0.843749 v -1.136719 H 53.8125 v 1.136719 q -1.722656,0.07031 -2.25,0.843749 -0.527344,0.761719 -0.527344,3.234375 v 5.4492193 q 0,2.9999999 -1.054687,4.5117187 -1.699219,2.51953125 -5.742188,2.51953125 -4.195312,0 -5.929687,-2.47265625 -0.621094,-0.9140625 -0.714844,-2.71875 v -1.6523437 -7.8984373 -0.691407 q 0,-0.773437 -0.351563,-0.949218 -0.339843,-0.175781 -1.78125,-0.175781 z m 19.605469,0 v -1.136719 h 4.945312 l 9.574219,12.7499998 v -7.5351568 q 0,-2.472656 -0.527344,-3.234375 -0.527343,-0.773437 -2.238281,-0.843749 v -1.136719 h 6.84375 v 1.136719 q -1.722656,0.07031 -2.25,0.843749 -0.527344,0.761719 -0.527344,3.234375 V 0.33984375 H 69.46875 L 58.757812,-14.109375 v 8.90625 q 0,2.4726562 0.527344,3.2460938 Q 59.8125,-1.1953125 61.523437,-1.125 V 0 h -6.84375 v -1.125 q 1.722657,-0.070312 2.25,-0.8320312 0.539063,-0.7734376 0.539063,-3.2460938 v -10.207031 q -0.316406,-0.457032 -0.808594,-0.621094 -0.492187,-0.164062 -1.40625,-0.164062 z"
         id="text6"
         class="cls-4"
         transform="translate(88.99,91.99)"
         aria-label="REUN" />
    </g>
    <g
       class="cls-5"
       id="g7"
       style="isolation:isolate"
       transform="matrix(1.1152487,0,0,1.1152487,-42.865077,36.365369)">
      <path
         style="font-size:36px;font-family:'Bakbak One';-inkscape-font-specification:'Bakbak One';isolation:isolate;fill:#006837"
         d="m 1.512,-16.092 v -4.716 q 1.26,-0.792 3.312,-1.296 2.052,-0.504 4.464,-0.504 3.852,0 6.156,1.512 2.34,1.512 2.34,5.112 0,2.844 -1.332,4.572 -1.296,1.692 -4.608,2.952 -3.204,1.224 -4.428,2.088 -1.188,0.828 -1.188,1.656 h 11.736 v 4.572 H 0.9 v -4.032 q 0,-1.836 0.612,-3.132 0.648,-1.296 2.196,-2.376 1.548,-1.08 4.284,-2.232 2.052,-0.864 3.204,-1.656 1.188,-0.828 1.152,-1.98 -0.036,-1.368 -1.044,-1.908 -0.972,-0.576 -2.772,-0.576 -1.728,0 -3.528,0.612 -1.8,0.576 -3.168,1.332 z m 37.475968,4.788 q 0,4.104 -0.936,6.588 -0.936,2.484 -3.024,3.6 -2.088,1.116 -5.58,1.116 -3.456,0 -5.544,-1.116 -2.088,-1.116 -3.024,-3.6 -0.936,-2.484 -0.936,-6.588 0,-4.14 0.936,-6.624 0.936,-2.484 3.024,-3.6 2.088,-1.116 5.544,-1.116 3.492,0 5.58,1.116 2.088,1.116 3.024,3.6 0.936,2.484 0.936,6.624 z m -9.54,6.516 q 2.448,0 3.204,-1.584 0.792,-1.62 0.792,-4.932 0,-3.348 -0.792,-4.932 -0.756,-1.584 -3.204,-1.584 -2.412,0 -3.204,1.584 -0.756,1.584 -0.756,4.932 0,3.312 0.756,4.932 0.792,1.584 3.204,1.584 z"
         id="text7"
         class="cls-10"
         transform="rotate(-0.44,5308.422,-21207.912)"
         aria-label="20" />
    </g>
    <g
       class="cls-5"
       id="g8"
       style="isolation:isolate"
       transform="matrix(1.1152487,0,0,1.1152487,-42.865077,36.365369)">
      <path
         style="font-size:36px;font-family:'Bakbak One';-inkscape-font-specification:'Bakbak One';letter-spacing:0.07em;isolation:isolate;fill:#006837"
         d="m 1.44,-13.644 v -6.12 l 4.212,-2.664 h 5.4 l 0.072,22.104 H 5.652 V -16.2 h -0.18 l -3.852,2.556 z m 15.44399,5.04 8.352,-13.788 h 8.244 v 14.184 h 3.78 v 4.248 h -3.708 v 3.708 h -5.4 l -0.108,-3.708 h -11.16 z m 11.556,0.396 v -10.944 l -6.084,10.944 z"
         id="text8"
         class="cls-9"
         transform="translate(162.99,66.99)"
         aria-label="14" />
    </g>
    <g
       class="cls-5"
       id="g9"
       style="isolation:isolate"
       transform="matrix(1.1152487,0,0,1.1152487,-42.865077,36.365369)">
      <text
         class="cls-3"
         transform="translate(162.99,94.99)"
         id="text9"
         style="font-size:36px;font-family:BakbakOne-Regular, 'Bakbak One';letter-spacing:0.07em;isolation:isolate;fill:none;stroke:#006837;stroke-miterlimit:10"><tspan
           x="0"
           y="0"
           id="tspan9"
           style="font-style:normal;font-variant:normal;font-weight:normal;font-stretch:normal;font-family:'Bakbak One';-inkscape-font-specification:'Bakbak One'">10</tspan></text>
    </g>
    <rect
       class="cls-12"
       x="137.80521"
       y="149.00551"
       width="66.914925"
       height="65.799675"
       id="rect9"
       style="fill:#006837;stroke-width:0px" />
    <path
       class="cls-13"
       d="m 191.93936,211.38136 c -0.22298,-0.0224 -0.35701,-0.16731 -0.50184,-0.25649 -6.68032,-4.33832 -13.36069,-8.68779 -20.04101,-13.03725 -0.33468,-0.22308 -0.57992,-0.22308 -0.92565,0 -6.71382,4.38291 -13.44992,8.7547 -20.17487,13.12647 -0.11178,0.067 -0.20064,0.17842 -0.37936,0.16729 -0.0211,-0.23419 0.067,-0.43495 0.1337,-0.64685 2.08554,-7.26026 4.17105,-14.52053 6.27887,-21.7808 0.14497,-0.49071 0.0556,-0.76952 -0.33469,-1.08179 -4.6617,-3.72493 -9.30115,-7.46102 -13.95172,-11.19711 -1.02604,-0.82528 -2.05209,-1.65056 -3.06697,-2.47584 -0.11177,-0.0892 -0.30096,-0.16731 -0.24532,-0.32342 0.0556,-0.17844 0.24532,-0.11147 0.39032,-0.11147 6.90339,0 13.81795,0.0108 20.72134,0.0224 0.56874,0 1.13752,0 1.71744,0.0224 0.36798,0.0108 0.55767,-0.15613 0.68033,-0.47956 1.13757,-2.98887 2.28627,-5.97773 3.43498,-8.9666 1.66172,-4.32716 3.33457,-8.64318 5.00746,-12.97034 0.021,-0.0446 0.0337,-0.10035 0.0556,-0.14496 0.0556,-0.11147 0.0556,-0.31226 0.18968,-0.32344 0.1783,0 0.1783,0.21189 0.22298,0.33457 l 5.75468,14.68781 c 0.95911,2.45355 1.91822,4.89595 2.86619,7.34949 0.13355,0.33455 0.31234,0.49071 0.66916,0.4684 0.42378,-0.0224 0.84757,0 1.2714,0 h 20.76593 c 0.22298,0 0.55762,-0.13385 0.64684,0.11147 0.067,0.20076 -0.26766,0.32343 -0.43495,0.45726 -5.94427,4.52789 -11.89972,9.06696 -17.85513,13.58372 -0.35703,0.26766 -0.42379,0.50186 -0.29001,0.92565 2.44237,7.32719 4.87364,14.66554 7.30488,22.00386 0.0556,0.16731 0.15596,0.33455 0.11178,0.53533 z m 6.45731,-36.11176 c -0.24533,-0.13385 -0.47956,-0.12273 -0.71375,-0.12273 h -19.00383 c -0.47955,0 -0.81415,0.15613 -1.12641,0.52417 -2.00744,2.37547 -4.02607,4.72864 -6.0558,7.09297 -0.11178,0.13386 -0.223,0.3569 -0.4461,0.26766 -0.22298,-0.0781 -0.15596,-0.31226 -0.15596,-0.49071 v -26.42023 c 0,-0.23421 0.10035,-0.61339 -0.1783,-0.65801 -0.24532,-0.0446 -0.27862,0.34573 -0.35702,0.54648 -2.28627,6.01118 -4.56138,12.02238 -6.84762,18.02241 -0.16734,0.45725 -0.11178,0.81413 0.21203,1.20448 2.07433,2.39778 4.12637,4.81786 6.18959,7.23796 0.15596,0.17842 0.45726,0.37918 0.30096,0.63569 -0.1783,0.28995 -0.49073,0.067 -0.72492,0 -4.84017,-1.41637 -9.68034,-2.84388 -14.53168,-4.26025 -3.5911,-1.05949 -7.18221,-2.10782 -10.78445,-3.15616 -0.24531,-0.067 -0.57991,-0.25648 -0.72491,0.0224 -0.15596,0.27883 0.22298,0.40149 0.40128,0.54647 4.67291,3.66917 9.34578,7.32718 14.00753,10.99636 0.35701,0.27879 0.70262,0.34571 1.1487,0.20072 3.63571,-1.20447 7.26028,-2.38664 10.89599,-3.57995 0.18968,-0.067 0.37936,-0.12258 0.56879,-0.17842 0.078,-0.0224 0.16733,-0.0446 0.21201,0.0446 0.0337,0.067 -0.0212,0.12273 -0.067,0.17842 -0.15596,0.20072 -0.3233,0.39032 -0.47955,0.59108 -4.31602,5.53163 -8.63201,11.06327 -12.9369,16.5949 l -4.55023,5.85505 c -0.13354,0.1673 -0.26765,0.33456 -0.27861,0.55763 0,0.28996 0.12258,0.40149 0.37937,0.27879 0.24531,-0.12258 0.47955,-0.27879 0.71373,-0.42379 5.57627,-3.70263 11.14136,-7.41641 16.72874,-11.10788 0.49072,-0.32343 0.69145,-0.69145 0.68032,-1.27138 -0.0212,-3.3346 0,-6.66919 0,-10.00379 v -0.55762 c 0,-0.12258 0.0337,-0.24536 0.16733,-0.28995 0.13401,-0.0446 0.22298,0.0334 0.30096,0.13385 0.16734,0.2119 0.33469,0.41266 0.49073,0.62454 5.1413,6.79186 10.2826,13.57258 15.41273,20.36444 0.45726,0.60223 0.92565,1.20447 1.38289,1.79555 0.067,0.0781 0.134,0.20071 0.25671,0.15613 0.13354,-0.0557 0.12274,-0.1896 0.0894,-0.31226 -0.067,-0.24537 -0.1337,-0.49072 -0.21202,-0.72492 -2.11898,-6.23424 -4.24909,-12.46848 -6.36808,-18.70272 -0.14496,-0.42379 -0.37935,-0.65799 -0.8141,-0.76952 -1.72866,-0.49071 -3.44615,-1.00372 -5.16364,-1.51674 -1.50555,-0.44609 -2.99998,-0.89219 -4.50558,-1.3383 -0.16733,-0.0557 -0.41265,-0.067 -0.40169,-0.31224 0,-0.23421 0.2567,-0.23421 0.42379,-0.28997 0.0336,0 0.078,-0.0224 0.11177,-0.0334 4.63941,-1.37176 9.27886,-2.73235 13.90714,-4.10411 3.91452,-1.15986 7.81789,-2.31971 11.72125,-3.47958 0.23436,-0.067 0.49073,-0.11146 0.66915,-0.35689 h 0.0556 z"
       id="path9"
       style="fill:#ffffff;stroke-width:0px" />
  </g>
</svg>
