<?xml version="1.0" encoding="UTF-8" standalone="no"?>
<!-- Created with Inkscape (http://www.inkscape.org/) -->

<svg
   width="209.91011mm"
   height="203.63885mm"
   viewBox="0 0 209.91011 203.63885"
   version="1.1"
   id="svg1"
   xmlns="http://www.w3.org/2000/svg"
   xmlns:svg="http://www.w3.org/2000/svg">
  <defs
     id="defs1" />
  <g
     id="layer1"
     transform="translate(-0.04494476,-46.680571)">
    <rect
       class="cls-12"
       x="0.044944763"
       y="46.680573"
       width="209.91011"
       height="203.63885"
       id="rect18"
       style="fill:rgba(0, 104, 55,0.8);stroke-width:0px" />
    <path
       class="cls-13"
       d="m 170.30992,242.40994 c -0.69978,0 -1.10787,-0.52484 -1.57441,-0.8164 -20.75943,-13.47029 -41.51894,-26.9406 -62.22009,-40.46925 -1.04961,-0.69979 -1.80771,-0.69979 -2.85733,0 -20.87609,13.58689 -41.752157,27.17386 -62.686523,40.76081 -0.349874,0.23319 -0.641434,0.5832 -1.16626,0.52484 0,-0.69972 0.233236,-1.34119 0.408194,-1.98258 6.472743,-22.56719 12.945482,-45.13437 19.476544,-67.6432 0.466509,-1.51603 0.174991,-2.39082 -1.049641,-3.32379 -14.461577,-11.54609 -28.92321,-23.20859 -43.32652,-34.75452 -3.207219,-2.56586 -6.3561218,-5.13168 -9.5633378,-7.69739 -0.349878,-0.29163 -0.9329998,-0.52478 -0.7580716,-0.99131 0.1749936,-0.52488 0.7580716,-0.34985 1.2245616,-0.34985 21.4591948,0 42.9183938,0 64.3775728,0 1.749389,0 3.557101,0 5.30649,0 1.166262,0 1.691079,-0.46659 2.099271,-1.51619 3.557085,-9.27173 7.114181,-18.54352 10.671269,-27.81529 5.189871,-13.411999 10.379727,-26.882306 15.569591,-40.294305 0,-0.174109 0.11662,-0.291576 0.17503,-0.466584 0.175,-0.34976 0.175,-0.991333 0.58312,-0.991333 0.52482,0 0.52482,0.641573 0.69978,1.049746 5.94788,15.219715 11.89574,30.439391 17.84381,45.600806 2.97392,7.58058 5.94781,15.21967 8.92182,22.80038 0.40813,1.04966 0.93297,1.51619 2.09931,1.45777 1.34113,0 2.62411,0 3.96529,0 h 64.49411 c 0.69979,0 1.74956,-0.40811 1.98272,0.34999 0.23322,0.64141 -0.81626,0.99117 -1.34134,1.39939 -18.48521,14.05348 -36.97034,28.16525 -55.45561,42.16039 -1.108,0.81633 -1.34112,1.57441 -0.87474,2.85726 7.58071,22.8004 15.16138,45.54249 22.6838,68.34293 0.17405,0.52473 0.46658,1.04962 0.34968,1.69108 h -0.057 z m 20.05971,-112.1943 c -0.7579,-0.40814 -1.51614,-0.40814 -2.21595,-0.40814 h -59.01273 c -1.51609,0 -2.56576,0.52488 -3.49882,1.63275 -6.23943,7.34749 -12.53735,14.69492 -18.77678,22.04232 -0.34988,0.40817 -0.69971,1.1079 -1.39949,0.81639 -0.69977,-0.23326 -0.46652,-0.99131 -0.46652,-1.51617 V 70.736393 c 0,-0.758159 0.29159,-1.924275 -0.58311,-2.040861 -0.75811,-0.116808 -0.87475,1.049746 -1.10799,1.691095 -7.114204,18.660174 -14.170084,37.320303 -21.284263,55.980543 -0.524837,1.39948 -0.349884,2.56572 0.699751,3.73196 6.472739,7.46406 12.828868,14.98647 19.243302,22.50884 0.46651,0.58312 1.39953,1.16629 0.93301,1.98265 -0.58312,0.93299 -1.51616,0.23319 -2.27422,0 -15.044768,-4.37347 -30.089517,-8.8053 -45.134276,-13.23703 -11.13779,-3.26554 -22.333891,-6.53114 -33.471673,-9.79664 -0.758077,-0.2333 -1.807703,-0.81639 -2.274208,0 -0.466504,0.8747 0.699752,1.28291 1.224584,1.6911 14.51994,11.37103 29.039891,22.74207 43.501512,34.17145 1.107951,0.87465 2.215891,1.10798 3.557089,0.64147 11.254414,-3.73217 22.567139,-7.40588 33.879872,-11.13779 0.58312,-0.17508 1.16628,-0.34999 1.7494,-0.52488 0.23327,0 0.52482,-0.11652 0.64146,0.17493 0.11661,0.23331 0,0.4083 -0.17505,0.52492 -0.46647,0.64147 -0.99128,1.22459 -1.4578,1.80761 -13.412012,17.20239 -26.823997,34.34641 -40.17767,51.54872 -4.723363,6.06462 -9.446719,12.12915 -14.111755,18.19373 -0.4082,0.52478 -0.816392,1.04964 -0.874687,1.74932 0,0.93306 0.349882,1.28292 1.166269,0.87482 0.758067,-0.34999 1.516141,-0.87482 2.215882,-1.34116 17.318974,-11.4877 34.637939,-23.03375 51.956921,-34.52133 1.51617,-0.99137 2.15761,-2.15768 2.15761,-3.96536 v -32.83043 c 0,-0.34981 0.11663,-0.75798 0.52482,-0.93293 0.40822,-0.17509 0.69979,0.11657 0.93301,0.4081 0.5248,0.64153 1.04963,1.2829 1.51614,1.92441 15.97781,21.10925 31.89729,42.16033 47.87498,63.26965 1.39951,1.86609 2.85735,3.73201 4.31512,5.59799 0.17423,0.23319 0.40818,0.58318 0.81648,0.4666 0.40812,-0.17507 0.40812,-0.58317 0.29149,-0.9914 -0.174,-0.75804 -0.40819,-1.51613 -0.64133,-2.27414 -6.5894,-19.35989 -13.1787,-38.71987 -19.76808,-58.07978 -0.46665,-1.34123 -1.16639,-2.04095 -2.50752,-2.39089 -5.36466,-1.51613 -10.6712,-3.1489 -16.03602,-4.72332 -4.66509,-1.39953 -9.33006,-2.74075 -13.99521,-4.14026 -0.52475,-0.17501 -1.2828,-0.23318 -1.2828,-0.93296 0,-0.69975 0.75808,-0.7581 1.2828,-0.93295 0.11675,0 0.23338,0 0.34997,-0.11669 14.40325,-4.25685 28.80661,-8.45526 43.20989,-12.71214 12.12913,-3.61554 24.25829,-7.17256 36.44571,-10.78795 0.69979,-0.23317 1.5161,-0.34996 2.09926,-1.10799 h -0.0574 z"
       id="path18"
       style="fill:#ffffff;stroke-width:0px" />
  </g>
</svg>
